<svg width="246" height="51" viewBox="0 0 246 51" fill="none" xmlns="http://www.w3.org/2000/svg">
<path d="M55.1518 28.5015C58.5926 29.7636 43.8704 38.4515 43.8704 38.4515L44.6524 29.3986C44.6524 29.3986 51.711 27.2395 55.1518 28.5015Z" fill="#0075FF"/>
<path d="M2.34349 27.4789C-1.28429 26.9582 11.3147 15.4045 11.3147 15.4045L12.4282 24.4227C12.4282 24.4227 5.97128 27.9995 2.34349 27.4789Z" fill="#72AEF4"/>
<path d="M47.238 34.546C43.2441 45.4346 32.6258 47.0808 21.7372 43.0868C10.8485 39.0929 3.81298 30.9713 7.80691 20.0827C11.8008 9.19412 23.8655 3.60489 34.7541 7.59882C45.6427 11.5927 51.232 23.6574 47.238 34.546Z" fill="#72AEF4"/>
<path d="M44.9727 36.3661C43.4685 40.4669 40.4843 42.6932 36.5671 43.4909C32.5631 44.3063 27.5505 43.6214 22.2537 41.6786C16.9569 39.7357 12.6903 37.017 10.1631 33.806C7.69078 30.6646 6.85393 27.0366 8.35808 22.9359C9.52706 19.7489 10.7638 17.1454 12.4763 15.2979C14.1283 13.5158 16.2868 12.3694 19.5094 12.2227C21.9706 12.1107 23.6913 13.193 25.3186 14.648C25.7297 15.0156 26.1254 15.3983 26.5295 15.7922C26.5665 15.8282 26.6036 15.8645 26.6409 15.9009C27.0031 16.2541 27.3775 16.6193 27.7511 16.96C28.561 17.6985 29.5058 18.4555 30.6217 18.8648C31.7377 19.2742 32.9479 19.3076 34.0432 19.2679C34.5485 19.2496 35.0702 19.2131 35.5748 19.1779C35.6268 19.1742 35.6787 19.1706 35.7303 19.167C36.2932 19.1278 36.8425 19.0917 37.3937 19.0771C39.576 19.0195 41.5883 19.3064 43.3933 20.9833C45.7568 23.179 46.6621 25.4491 46.7699 27.8768C46.8817 30.3935 46.1417 33.1791 44.9727 36.3661Z" fill="white" stroke="#72AEF4" stroke-width="3" stroke-linejoin="round"/>
<circle cx="18.804" cy="22.6252" r="2.8" transform="rotate(20.143 18.804 22.6252)" fill="black"/>
<circle cx="37.2052" cy="29.3748" r="2.8" transform="rotate(20.143 37.2052 29.3748)" fill="black"/>
<path d="M28.0046 26C30.1823 26.7988 30.8084 28.5196 32.2979 30.5572C32.2979 30.5572 27.5567 32.5462 25.8351 31.9147C24.1135 31.2832 21.7829 26.7003 21.7829 26.7003C24.2366 26.1091 25.8269 25.2012 28.0046 26Z" fill="#FF9900"/>
<path d="M64.1564 28.1344C67.5972 29.3965 52.875 38.0844 52.875 38.0844L53.657 29.0315C53.657 29.0315 60.7156 26.8723 64.1564 28.1344Z" fill="#0075FF"/>
<path d="M11.3481 27.1117C7.7203 26.5911 20.3193 15.0374 20.3193 15.0374L21.4328 24.0555C21.4328 24.0555 14.9759 27.6324 11.3481 27.1117Z" fill="#479BFE"/>
<path d="M56.2426 34.1789C52.2487 45.0675 41.6303 46.7136 30.7417 42.7197C19.8531 38.7257 12.8176 30.6042 16.8115 19.7156C20.8054 8.82696 32.8701 3.23772 43.7587 7.23165C54.6473 11.2256 60.2365 23.2903 56.2426 34.1789Z" fill="#479BFE"/>
<path d="M53.9773 35.999C52.4731 40.0997 49.4889 42.3261 45.5717 43.1238C41.5677 43.9392 36.5551 43.2543 31.2583 41.3114C25.9614 39.3685 21.6949 36.6498 19.1677 33.4388C16.6954 30.2974 15.8585 26.6695 17.3627 22.5688C18.5316 19.3818 19.7683 16.7782 21.4809 14.9308C23.1329 13.1486 25.2914 12.0023 28.514 11.8556C30.9752 11.7435 32.6958 12.8258 34.3232 14.2809C34.7343 14.6484 35.1299 15.0311 35.534 15.425C35.5711 15.4611 35.6082 15.4973 35.6455 15.5337C36.0076 15.8869 36.3821 16.2521 36.7557 16.5928C37.5655 17.3313 38.5104 18.0883 39.6263 18.4977C40.7423 18.907 41.9525 18.9405 43.0478 18.9008C43.5531 18.8825 44.0748 18.846 44.5794 18.8107C44.6314 18.8071 44.6832 18.8034 44.7348 18.7998C45.2978 18.7607 45.847 18.7245 46.3983 18.71C48.5805 18.6523 50.5929 18.9393 52.3979 20.6161C54.7613 22.8118 55.6667 25.082 55.7745 27.5096C55.8863 30.0263 55.1463 32.812 53.9773 35.999Z" fill="white" stroke="#479BFE" stroke-width="3" stroke-linejoin="round"/>
<circle cx="27.8086" cy="22.2581" r="2.8" transform="rotate(20.143 27.8086 22.2581)" fill="black"/>
<circle cx="46.2098" cy="29.0076" r="2.8" transform="rotate(20.143 46.2098 29.0076)" fill="black"/>
<path d="M37.0092 25.6328C39.1869 26.4316 39.813 28.1525 41.3024 30.19C41.3024 30.19 36.5613 32.179 34.8397 31.5475C33.118 30.916 30.7875 26.3331 30.7875 26.3331C33.2411 25.7419 34.8315 24.834 37.0092 25.6328Z" fill="#FF9900"/>
<path d="M74.1564 28.1344C77.5972 29.3965 62.875 38.0844 62.875 38.0844L63.657 29.0315C63.657 29.0315 70.7156 26.8723 74.1564 28.1344Z" fill="#0075FF"/>
<path d="M21.3481 27.1117C17.7203 26.5911 30.3193 15.0374 30.3193 15.0374L31.4328 24.0555C31.4328 24.0555 24.9759 27.6324 21.3481 27.1117Z" fill="#0075FF"/>
<path d="M66.2426 34.1789C62.2487 45.0675 51.6303 46.7136 40.7417 42.7197C29.8531 38.7257 22.8176 30.6042 26.8115 19.7156C30.8054 8.82696 42.8701 3.23772 53.7587 7.23165C64.6473 11.2256 70.2365 23.2903 66.2426 34.1789Z" fill="#0075FF"/>
<path d="M63.9773 35.999C62.4731 40.0997 59.4889 42.3261 55.5717 43.1238C51.5677 43.9392 46.5551 43.2543 41.2583 41.3114C35.9614 39.3685 31.6949 36.6498 29.1677 33.4388C26.6954 30.2974 25.8585 26.6695 27.3627 22.5688C28.5316 19.3818 29.7683 16.7782 31.4809 14.9308C33.1329 13.1486 35.2914 12.0023 38.514 11.8556C40.9752 11.7435 42.6958 12.8258 44.3232 14.2809C44.7343 14.6484 45.1299 15.0311 45.534 15.425C45.5711 15.4611 45.6082 15.4973 45.6455 15.5337C46.0076 15.8869 46.3821 16.2521 46.7557 16.5928C47.5655 17.3313 48.5104 18.0883 49.6263 18.4977C50.7423 18.907 51.9525 18.9405 53.0478 18.9008C53.5531 18.8825 54.0748 18.846 54.5794 18.8107C54.6314 18.8071 54.6832 18.8034 54.7348 18.7998C55.2978 18.7607 55.847 18.7245 56.3983 18.71C58.5805 18.6523 60.5929 18.9393 62.3979 20.6161C64.7613 22.8118 65.6667 25.082 65.7745 27.5096C65.8863 30.0263 65.1463 32.812 63.9773 35.999Z" fill="white" stroke="#0075FF" stroke-width="3" stroke-linejoin="round"/>
<circle cx="37.8086" cy="22.2581" r="2.8" transform="rotate(20.143 37.8086 22.2581)" fill="black"/>
<circle cx="56.2098" cy="29.0076" r="2.8" transform="rotate(20.143 56.2098 29.0076)" fill="black"/>
<path d="M47.0092 25.6328C49.1869 26.4316 49.813 28.1525 51.3024 30.19C51.3024 30.19 46.5613 32.179 44.8397 31.5475C43.118 30.916 40.7875 26.3331 40.7875 26.3331C43.2411 25.7419 44.8315 24.834 47.0092 25.6328Z" fill="#FF1A1A"/>
<path d="M95.2461 39H91.2031V21.7539L88.6445 30.9141H85.5195L83 21.7539V39H78.957V13.5117H83.7617L87.082 25.0352L90.4023 13.5117H95.2461V39ZM120.508 29.918C120.508 31.3372 120.28 32.6263 119.824 33.7852C119.382 34.944 118.737 35.9466 117.891 36.793C117.057 37.6263 116.055 38.2773 114.883 38.7461C113.711 39.2148 112.402 39.4492 110.957 39.4492C109.538 39.4492 108.242 39.2148 107.07 38.7461C105.898 38.2773 104.889 37.6263 104.043 36.793C103.21 35.9466 102.565 34.944 102.109 33.7852C101.667 32.6263 101.445 31.3372 101.445 29.918C101.445 28.5378 101.667 27.2617 102.109 26.0898C102.565 24.9049 103.21 23.8893 104.043 23.043C104.889 22.1836 105.898 21.526 107.07 21.0703C108.242 20.6016 109.538 20.3672 110.957 20.3672C112.402 20.3672 113.711 20.6016 114.883 21.0703C116.055 21.526 117.057 22.1836 117.891 23.043C118.737 23.8893 119.382 24.9049 119.824 26.0898C120.28 27.2617 120.508 28.5378 120.508 29.918ZM116.484 29.918C116.484 29.0977 116.354 28.3229 116.094 27.5938C115.846 26.8516 115.482 26.2201 115 25.6992C114.518 25.1784 113.932 24.7682 113.242 24.4688C112.565 24.1562 111.803 24 110.957 24C110.098 24 109.329 24.1562 108.652 24.4688C107.975 24.7682 107.402 25.1784 106.934 25.6992C106.465 26.2201 106.1 26.8516 105.84 27.5938C105.592 28.3229 105.469 29.0977 105.469 29.918C105.469 30.7773 105.592 31.5586 105.84 32.2617C106.1 32.9648 106.465 33.5833 106.934 34.1172C107.402 34.651 107.975 35.0677 108.652 35.3672C109.329 35.6536 110.098 35.7969 110.957 35.7969C111.803 35.7969 112.565 35.6536 113.242 35.3672C113.932 35.0677 114.518 34.651 115 34.1172C115.482 33.5833 115.846 32.9648 116.094 32.2617C116.354 31.5586 116.484 30.7773 116.484 29.918ZM143.191 36.4023C142.02 37.5742 140.783 38.375 139.48 38.8047C138.191 39.2344 136.792 39.4492 135.281 39.4492C133.758 39.4492 132.371 39.2214 131.121 38.7656C129.884 38.3099 128.829 37.6719 127.957 36.8516C127.098 36.0182 126.434 35.0156 125.965 33.8438C125.509 32.6719 125.281 31.3633 125.281 29.918C125.281 28.5378 125.509 27.2617 125.965 26.0898C126.434 24.9049 127.059 23.8958 127.84 23.0625C128.634 22.2161 129.565 21.5586 130.633 21.0898C131.701 20.6081 132.833 20.3672 134.031 20.3672C135.281 20.3672 136.368 20.6276 137.293 21.1484C138.217 21.6693 138.888 22.431 139.305 23.4336V20.7969H142.918V29.2734H139.305C139.305 27.6719 138.862 26.3958 137.977 25.4453C137.104 24.4818 135.965 24 134.559 24C133.999 24 133.406 24.1172 132.781 24.3516C132.169 24.5729 131.603 24.9245 131.082 25.4062C130.574 25.888 130.151 26.5 129.812 27.2422C129.474 27.9844 129.305 28.8763 129.305 29.918C129.305 30.9336 129.467 31.8125 129.793 32.5547C130.118 33.2839 130.542 33.8893 131.062 34.3711C131.596 34.8398 132.221 35.1979 132.938 35.4453C133.667 35.6797 134.415 35.7969 135.184 35.7969C136.499 35.7969 137.638 35.5951 138.602 35.1914C139.578 34.7747 140.418 34.2279 141.121 33.5508L143.191 36.4023ZM167.672 39H162.438L156.344 31.6367L154.508 33.5117V39H150.465V13.5117H154.508V28.5117L161.793 20.7969H167.34L158.941 29.1562L167.672 39ZM177.055 31.4414C177.25 32.6914 177.842 33.7331 178.832 34.5664C179.835 35.3867 181.176 35.7969 182.855 35.7969C184.171 35.7969 185.31 35.5951 186.273 35.1914C187.25 34.7747 188.09 34.2279 188.793 33.5508L190.863 36.4023C189.691 37.5742 188.448 38.375 187.133 38.8047C185.831 39.2344 184.405 39.4492 182.855 39.4492C181.449 39.4492 180.141 39.2148 178.93 38.7461C177.719 38.2773 176.671 37.6263 175.785 36.793C174.9 35.9466 174.203 34.944 173.695 33.7852C173.201 32.6263 172.953 31.3372 172.953 29.918C172.953 28.5378 173.181 27.2682 173.637 26.1094C174.105 24.9375 174.757 23.9284 175.59 23.082C176.436 22.2227 177.445 21.5586 178.617 21.0898C179.789 20.6081 181.085 20.3672 182.504 20.3672C183.975 20.3672 185.31 20.6211 186.508 21.1289C187.706 21.6237 188.728 22.3464 189.574 23.2969C190.434 24.2474 191.104 25.4128 191.586 26.793C192.068 28.1602 192.309 29.7096 192.309 31.4414H177.055ZM187.738 27.8867C187.53 26.7148 186.924 25.7773 185.922 25.0742C184.919 24.3581 183.78 24 182.504 24C181.228 24 180.082 24.3581 179.066 25.0742C178.051 25.7773 177.439 26.7148 177.23 27.8867H187.738ZM214.426 39H210.383V27.7695C210.383 26.3503 210.116 25.3672 209.582 24.8203C209.048 24.2734 208.273 24 207.258 24C205.76 24 204.536 24.6055 203.586 25.8164C202.648 27.0273 202.18 28.7005 202.18 30.8359V39H198.137V20.7969H202.18V25.3672C202.583 23.7917 203.332 22.5677 204.426 21.6953C205.52 20.8099 206.867 20.3672 208.469 20.3672C210.331 20.3672 211.789 20.9727 212.844 22.1836C213.898 23.3945 214.426 25.2565 214.426 27.7695V39ZM238.262 39H234.219V37.3203C233.438 38.0104 232.65 38.5378 231.855 38.9023C231.061 39.2669 230.156 39.4492 229.141 39.4492C227.969 39.4492 226.882 39.2148 225.879 38.7461C224.876 38.2773 224.01 37.6263 223.281 36.793C222.565 35.9466 221.999 34.9375 221.582 33.7656C221.178 32.5938 220.977 31.3112 220.977 29.918C220.977 28.5378 221.178 27.2617 221.582 26.0898C221.999 24.9049 222.565 23.8958 223.281 23.0625C224.01 22.2161 224.876 21.5586 225.879 21.0898C226.882 20.6081 227.969 20.3672 229.141 20.3672C230.156 20.3672 231.061 20.543 231.855 20.8945C232.65 21.2331 233.438 21.7474 234.219 22.4375V17.1641H230.703V13.5117H238.262V39ZM234.219 25.6406C233.737 25.1068 233.112 24.7031 232.344 24.4297C231.589 24.1432 230.866 24 230.176 24C228.652 24 227.409 24.5469 226.445 25.6406C225.495 26.7344 225.02 28.1602 225.02 29.918C225.02 31.6758 225.495 33.0951 226.445 34.1758C227.409 35.2565 228.652 35.7969 230.176 35.7969C230.866 35.7969 231.589 35.6602 232.344 35.3867C233.112 35.1003 233.737 34.6901 234.219 34.1562V25.6406Z" fill="black"/>
</svg>
